# xmcd
#
# Track frame offsets:
#	150
#	14025
#	25575
#	38175
#	49050
#	60525
#	76350
#	90450
#	101250
#	112950
#	124425
#	133950
#	145200
#
# Disc length: 2127 seconds
#
# Revision: 0
# Processed by: cddbd v1.5.2PL0 Copyright (c) Steve Scherf et al.
# Submitted via: EasyCDDAExtractor 16.0.6.1
#
DISCID=ac084d0d
DTITLE=Μοσχολιού Βίκυ-Μητσιάς Μανώλης - Λαϊκή παράδοση 1825-1940
DYEAR=1975
DGENRE=Ποικίλη
TTITLE0=Μοσχολιού Βίκυ - Βάλε με στην αγκαλιά σου [Βαγγ. Παπάζογλου]
TTITLE1=Μητσιάς Μανώλης - Το σακκάκι [Αν. Δελιά-Στ. Κηρομύτη]
TTITLE2=Μοσχολιού Βίκυ - Ομολογίες [Βασ. Βερμισόγλου]
TTITLE3=Μητσιάς Μανώλης - Σού 'χει λάχει [Γ. Μπάτη]
TTITLE4=Μοσχολιού Βίκυ - Βρε γρουσούζη [Μ. Βαμβακάρη]
TTITLE5=Μητσιάς Μανώλης - Το αίνιγμα [Βαγγ. Παπάζογλου]
TTITLE6=Μητσιάς Μανώλης - Τι κάθεσαι Μανώλη [λαϊκής προελεύσεως]
TTITLE7=Μοσχολιού Βίκυ - Οι πρωθυπουργοί [Μ. Βαμβακάρη]
TTITLE8=Μητσιάς Μανώλης - Η Ελένη η ζωντοχήρα [Γ. Εϊτζιρίδη-Γιοβάν Τσαούς-Στελ
TTITLE8=Περπινιάδη]
TTITLE9=Μοσχολιού Βίκυ - Ατσιγγάνα με φωνάζουν [Γ. Μπάτη]
TTITLE10=Μητσιάς Μανώλης - Νίκος ο τρελλάκιας [Αν. Δελιά-Ν. Μάθεση]
TTITLE11=Μοσχολιού Βίκυ - Μπρος στον Άγιο Σπυρίδωνα [Χαρ. Βασιλειάδη-Ν. Γούναρ
TTITLE11=η]
TTITLE12=Μοσχολιού Βίκυ - Καλέ ντουντού [λαϊκής προελεύσεως]
EXTD=
EXTT0=
EXTT1=
EXTT2=
EXTT3=
EXTT4=
EXTT5=
EXTT6=
EXTT7=
EXTT8=
EXTT9=
EXTT10=
EXTT11=
EXTT12=
PLAYORDER=
